RobotoExtremo-opsz144-wght400-wdth100-XTRAmax.ufo
<glyph name="plus" format="2">
  <advance width="1316"/>
  <unicode hex="002B"/>
  <outline>
    <contour>
      <point x="63.0" y="632.0" type="line"/>
      <point x="63.0" y="718.0" type="line"/>
      <point x="1253.0" y="718.0" type="line"/>
      <point x="1253.0" y="632.0" type="line"/>
    </contour>
    <contour>
      <point x="604.0" y="132.0" type="line"/>
      <point x="604.0" y="1216.0" type="line"/>
      <point x="712.0" y="1216.0" type="line"/>
      <point x="712.0" y="132.0" type="line"/>
    </contour>
  </outline>
</glyph>
<glyph name="five" format="2">
  <advance width="1134"/>
  <unicode hex="0035"/>
  <outline>
    <contour>
      <point x="33.0" y="370.0" type="qcurve" smooth="yes"/>
      <point x="33.0" y="390.0" type="line"/>
      <point x="143.0" y="390.0" type="line"/>
      <point x="143.0" y="370.0" type="line" smooth="yes"/>
      <point x="143.0" y="223.9671052631579"/>
      <point x="363.0" y="76.0"/>
      <point x="554.0" y="76.0" type="qcurve" smooth="yes"/>
      <point x="746.0" y="76.0"/>
      <point x="978.0" y="265.0"/>
      <point x="978.0" y="465.0" type="qcurve" smooth="yes"/>
      <point x="978.0" y="665.0"/>
      <point x="752.0" y="820.0"/>
      <point x="577.0" y="820.0" type="qcurve" smooth="yes"/>
      <point x="457.0" y="820.0"/>
      <point x="271.0" y="741.0"/>
      <point x="211.0" y="678.0" type="qcurve"/>
      <point x="96.0" y="717.0" type="line"/>
      <point x="168.0" y="1456.0" type="line"/>
      <point x="1004.0" y="1456.0" type="line"/>
      <point x="1004.0" y="1360.0" type="line"/>
      <point x="261.0" y="1360.0" type="line"/>
      <point x="206.0" y="781.0" type="line"/>
      <point x="259.9111477445392" y="833.8074475297334"/>
      <point x="478.0" y="920.0"/>
      <point x="607.0" y="920.0" type="qcurve" smooth="yes"/>
      <point x="801.0" y="920.0"/>
      <point x="1090.0" y="707.0"/>
      <point x="1090.0" y="465.0" type="qcurve" smooth="yes"/>
      <point x="1090.0" y="223.0"/>
      <point x="790.0" y="-20.0"/>
      <point x="554.0" y="-20.0" type="qcurve" smooth="yes"/>
      <point x="319.0" y="-20.0"/>
      <point x="33.0" y="198.0"/>
    </contour>
  </outline>
</glyph>
<glyph name="six" format="2">
  <advance width="1134"/>
  <unicode hex="0036"/>
  <outline>
    <contour>
      <point x="41.0" y="614.0" type="qcurve" smooth="yes"/>
      <point x="41.0" y="644.0" type="line" smooth="yes"/>
      <point x="41.0" y="1038.0"/>
      <point x="483.0" y="1476.0"/>
      <point x="864.0" y="1476.0" type="qcurve" smooth="yes"/>
      <point x="888.0" y="1476.0" type="line"/>
      <point x="888.0" y="1380.0" type="line"/>
      <point x="864.0" y="1380.0" type="line" smooth="yes"/>
      <point x="534.0" y="1380.0"/>
      <point x="149.0" y="1006.0"/>
      <point x="149.0" y="634.0" type="qcurve" smooth="yes"/>
      <point x="149.0" y="614.0" type="line" smooth="yes"/>
      <point x="149.0" y="322.0"/>
      <point x="386.0" y="75.0"/>
      <point x="578.0" y="75.0" type="qcurve" smooth="yes"/>
      <point x="759.0" y="75.0"/>
      <point x="976.0" y="261.0"/>
      <point x="976.0" y="455.0" type="qcurve" smooth="yes"/>
      <point x="976.0" y="634.0"/>
      <point x="767.0" y="809.0"/>
      <point x="577.0" y="809.0" type="qcurve" smooth="yes"/>
      <point x="404.0" y="809.0"/>
      <point x="150.0" y="620.0"/>
      <point x="150.0" y="465.0" type="qcurve"/>
      <point x="82.0" y="465.0" type="line"/>
      <point x="82.0" y="665.0"/>
      <point x="383.0" y="902.0"/>
      <point x="607.0" y="902.0" type="qcurve" smooth="yes"/>
      <point x="833.0" y="902.0"/>
      <point x="1088.0" y="667.0"/>
      <point x="1088.0" y="455.0" type="qcurve" smooth="yes"/>
      <point x="1088.0" y="235.0"/>
      <point x="802.0" y="-20.0"/>
      <point x="574.0" y="-20.0" type="qcurve" smooth="yes"/>
      <point x="331.0" y="-20.0"/>
      <point x="41.0" y="277.0"/>
    </contour>
  </outline>
</glyph>
<glyph name="eight" format="2">
  <advance width="1134"/>
  <unicode hex="0038"/>
  <outline>
    <contour>
      <point x="37.0" y="377.0" type="qcurve" smooth="yes"/>
      <point x="37.0" y="525.0"/>
      <point x="233.0" y="722.0"/>
      <point x="346.0" y="744.0" type="qcurve"/>
      <point x="346.0" y="748.0" type="line"/>
      <point x="249.0" y="776.0"/>
      <point x="91.0" y="951.0"/>
      <point x="91.0" y="1096.0" type="qcurve" smooth="yes"/>
      <point x="91.0" y="1276.0"/>
      <point x="358.0" y="1476.0"/>
      <point x="560.0" y="1476.0" type="qcurve" smooth="yes"/>
      <point x="762.0" y="1476.0"/>
      <point x="1029.0" y="1264.0"/>
      <point x="1029.0" y="1096.0" type="qcurve" smooth="yes"/>
      <point x="1029.0" y="943.0"/>
      <point x="860.0" y="774.0"/>
      <point x="764.0" y="750.0" type="qcurve"/>
      <point x="764.0" y="746.0" type="line"/>
      <point x="884.0" y="725.0"/>
      <point x="1084.0" y="528.0"/>
      <point x="1084.0" y="377.0" type="qcurve" smooth="yes"/>
      <point x="1084.0" y="183.0"/>
      <point x="773.0" y="-20.0"/>
      <point x="560.0" y="-20.0" type="qcurve" smooth="yes"/>
      <point x="347.0" y="-20.0"/>
      <point x="37.0" y="183.0"/>
    </contour>
    <contour>
      <point x="148.0" y="390.0" type="qcurve" smooth="yes"/>
      <point x="148.0" y="243.0"/>
      <point x="378.0" y="74.0"/>
      <point x="559.0" y="74.0" type="qcurve" smooth="yes"/>
      <point x="741.0" y="74.0"/>
      <point x="972.0" y="244.0"/>
      <point x="972.0" y="389.0" type="qcurve" smooth="yes"/>
      <point x="972.0" y="543.0"/>
      <point x="727.0" y="698.0"/>
      <point x="559.0" y="698.0" type="qcurve" smooth="yes"/>
      <point x="392.0" y="698.0"/>
      <point x="148.0" y="543.0"/>
    </contour>
    <contour>
      <point x="200.0" y="1094.0" type="qcurve" smooth="yes"/>
      <point x="200.0" y="960.6493506493506"/>
      <point x="416.0" y="792.0"/>
      <point x="559.0" y="792.0" type="qcurve" smooth="yes"/>
      <point x="703.0" y="792.0"/>
      <point x="920.0" y="961.0"/>
      <point x="920.0" y="1094.0" type="qcurve" smooth="yes"/>
      <point x="920.0" y="1229.0"/>
      <point x="724.0" y="1382.0"/>
      <point x="559.0" y="1382.0" type="qcurve" smooth="yes"/>
      <point x="395.0" y="1382.0"/>
      <point x="200.0" y="1236.5551839464883"/>
    </contour>
  </outline>
</glyph>
<glyph name="H" format="2">
  <advance width="1450"/>
  <unicode hex="0048"/>
  <outline>
    <contour>
      <point x="130.0" y="0.0" type="line"/>
      <point x="130.0" y="1456.0" type="line"/>
      <point x="240.0" y="1456.0" type="line"/>
      <point x="240.0" y="802.0" type="line"/>
      <point x="1210.0" y="802.0" type="line"/>
      <point x="1210.0" y="1456.0" type="line"/>
      <point x="1320.0" y="1456.0" type="line"/>
      <point x="1320.0" y="0.0" type="line"/>
      <point x="1210.0" y="0.0" type="line"/>
      <point x="1210.0" y="704.0" type="line"/>
      <point x="240.0" y="704.0" type="line"/>
      <point x="240.0" y="0.0" type="line"/>
    </contour>
  </outline>
</glyph>
<glyph name="N" format="2">
  <advance width="1412"/>
  <unicode hex="004E"/>
  <anchor x="597.0" y="1432.0" name="top"/>
  <outline>
    <contour>
      <point x="130.0" y="0.0" type="line"/>
      <point x="130.0" y="1456.0" type="line"/>
      <point x="279.0" y="1456.0" type="line"/>
      <point x="1110.0" y="227.0" type="line" smooth="yes"/>
      <point x="1129" y="198"/>
      <point x="1168.0" y="135.0"/>
      <point x="1185.0" y="104.0" type="qcurve"/>
      <point x="1189.0" y="104.0" type="line"/>
      <point x="1186.0" y="138.0"/>
      <point x="1184.0" y="213.0"/>
      <point x="1184.0" y="247.0" type="qcurve" smooth="yes"/>
      <point x="1184.0" y="1456.0" type="line"/>
      <point x="1290.0" y="1456.0" type="line"/>
      <point x="1290.0" y="0.0" type="line"/>
      <point x="1141.0" y="0.0" type="line"/>
      <point x="308.0" y="1234.0" type="line" smooth="yes"/>
      <point x="290" y="1261"/>
      <point x="248.0" y="1330.0"/>
      <point x="236.0" y="1361.0" type="qcurve"/>
      <point x="232.0" y="1361.0" type="line"/>
      <point x="234.0" y="1327.0"/>
      <point x="236.0" y="1249.0"/>
      <point x="236.0" y="1214.0" type="qcurve" smooth="yes"/>
      <point x="236.0" y="0.0" type="line"/>
    </contour>
  </outline>
</glyph>
<glyph name="R" format="2">
  <advance width="1214"/>
  <unicode hex="0052"/>
  <outline>
    <contour>
      <point x="130.0" y="0.0" type="line"/>
      <point x="130.0" y="1456.0" type="line"/>
      <point x="615.0" y="1456.0" type="line" smooth="yes"/>
      <point x="871.0" y="1456.0"/>
      <point x="1133.0" y="1228.0"/>
      <point x="1133.0" y="1044.0" type="qcurve" smooth="yes"/>
      <point x="1133.0" y="859.0"/>
      <point x="871.0" y="627.0"/>
      <point x="615.0" y="627.0" type="qcurve" smooth="yes"/>
      <point x="240.0" y="627.0" type="line"/>
      <point x="240.0" y="0.0" type="line"/>
    </contour>
    <contour>
      <point x="240.0" y="721.0" type="line"/>
      <point x="615.0" y="721.0" type="line" smooth="yes"/>
      <point x="841.8570120965998" y="721.0"/>
      <point x="1023.0" y="903.3373493975904"/>
      <point x="1023.0" y="1043.0" type="qcurve" smooth="yes"/>
      <point x="1023.0" y="1183.565749235474"/>
      <point x="841.854054054054" y="1360.0"/>
      <point x="615.0" y="1360.0" type="qcurve" smooth="yes"/>
      <point x="240.0" y="1360.0" type="line"/>
    </contour>
    <contour>
      <point x="1063.0" y="0.0" type="line"/>
      <point x="634.0" y="667.0" type="line"/>
      <point x="766.0" y="667.0" type="line"/>
      <point x="1206.0" y="0.0" type="line"/>
    </contour>
  </outline>
</glyph>
<glyph name="U" format="2">
  <advance width="1354"/>
  <unicode hex="0055"/>
  <anchor x="680.0" y="1432.0" name="top"/>
  <outline>
    <contour>
      <point x="120.0" y="546.0" type="qcurve" smooth="yes"/>
      <point x="120.0" y="1456.0" type="line"/>
      <point x="230.0" y="1456.0" type="line"/>
      <point x="230.0" y="546.0" type="line" smooth="yes"/>
      <point x="230.0" y="299.0357142857143"/>
      <point x="468.4630071599046" y="76.0"/>
      <point x="678.0" y="76.0" type="qcurve" smooth="yes"/>
      <point x="885.4224343675418" y="76.0"/>
      <point x="1124.0" y="299.0357142857143"/>
      <point x="1124.0" y="546.0" type="qcurve" smooth="yes"/>
      <point x="1124.0" y="1456.0" type="line"/>
      <point x="1234.0" y="1456.0" type="line"/>
      <point x="1234.0" y="546.0" type="line" smooth="yes"/>
      <point x="1234.0" y="258.0"/>
      <point x="938.0" y="-20.0"/>
      <point x="678.0" y="-20.0" type="qcurve" smooth="yes"/>
      <point x="417.0" y="-20.0"/>
      <point x="120.0" y="258.0"/>
    </contour>
  </outline>
</glyph>
<glyph name="V" format="2">
  <advance width="1315"/>
  <unicode hex="0056"/>
  <outline>
    <contour>
      <point x="-10.0" y="1456.0" type="line"/>
      <point x="112.0" y="1456.0" type="line"/>
      <point x="603.0" y="216.0" type="line" smooth="yes"/>
      <point x="621" y="170"/>
      <point x="654.0" y="96.0"/>
      <point x="667.0" y="54.0" type="qcurve"/>
      <point x="671.0" y="54.0" type="line"/>
      <point x="681.0" y="96.0"/>
      <point x="712" y="177"/>
      <point x="727.0" y="216.0" type="qcurve" smooth="yes"/>
      <point x="1214.0" y="1456.0" type="line"/>
      <point x="1325.0" y="1456.0" type="line"/>
      <point x="749.0" y="-9.0" type="line"/>
      <point x="580.0" y="-9.0" type="line"/>
    </contour>
  </outline>
</glyph>
<glyph name="W" format="2">
  <advance width="1989"/>
  <unicode hex="0057"/>
  <outline>
    <contour>
      <point x="458.0" y="-9.0" type="line"/>
      <point x="10.0" y="1456.0" type="line"/>
      <point x="128.0" y="1456.0" type="line"/>
      <point x="500.0" y="216.0" type="line" smooth="yes"/>
      <point x="507" y="194"/>
      <point x="523.0" y="139.0"/>
      <point x="527.0" y="103.0" type="qcurve"/>
      <point x="532.0" y="103.0" type="line"/>
      <point x="537.0" y="136.0"/>
      <point x="548" y="194"/>
      <point x="555.0" y="216.0" type="qcurve" smooth="yes"/>
      <point x="921.0" y="1456.0" type="line"/>
      <point x="1083.0" y="1456.0" type="line"/>
      <point x="1445.0" y="215.0" type="line" smooth="yes"/>
      <point x="1448" y="205"/>
      <point x="1465.0" y="139.0"/>
      <point x="1470.0" y="102.0" type="qcurve"/>
      <point x="1475.0" y="102.0" type="line"/>
      <point x="1479.0" y="138.0"/>
      <point x="1490" y="195"/>
      <point x="1496.0" y="215.0" type="qcurve" smooth="yes"/>
      <point x="1875.0" y="1456.0" type="line"/>
      <point x="1979.0" y="1456.0" type="line"/>
      <point x="1532.0" y="-9.0" type="line"/>
      <point x="1395.0" y="-9.0" type="line"/>
      <point x="1023.0" y="1282.0" type="line" smooth="yes"/>
      <point x="1018" y="1300"/>
      <point x="1004.0" y="1357.0"/>
      <point x="998.0" y="1391.0" type="qcurve"/>
      <point x="994.0" y="1391.0" type="line"/>
      <point x="989.0" y="1357.0"/>
      <point x="974" y="1300"/>
      <point x="969.0" y="1282.0" type="qcurve" smooth="yes"/>
      <point x="594.0" y="-9.0" type="line"/>
    </contour>
  </outline>
</glyph>
<glyph name="X" format="2">
  <advance width="1263"/>
  <unicode hex="0058"/>
  <outline>
    <contour>
      <point x="-10.0" y="0.0" type="line"/>
      <point x="595.0" y="797.0" type="line"/>
      <point x="607.0" y="797.0" type="line"/>
      <point x="1103.0" y="1456.0" type="line"/>
      <point x="1241.0" y="1456.0" type="line"/>
      <point x="673.0" y="710.0" type="line"/>
      <point x="656.0" y="710.0" type="line"/>
      <point x="128.0" y="0.0" type="line"/>
    </contour>
    <contour>
      <point x="22.0" y="1456.0" type="line"/>
      <point x="160.0" y="1456.0" type="line"/>
      <point x="659.0" y="792.0" type="line"/>
      <point x="662.0" y="792.0" type="line"/>
      <point x="1273.0" y="0.0" type="line"/>
      <point x="1134.0" y="0.0" type="line"/>
      <point x="597.0" y="704.0" type="line"/>
      <point x="594.0" y="705.0" type="line"/>
    </contour>
  </outline>
</glyph>
<glyph name="Z" format="2">
  <advance width="1166"/>
  <unicode hex="005A"/>
  <outline>
    <contour>
      <point x="7.0" y="0.0" type="line"/>
      <point x="7.0" y="64.0" type="line"/>
      <point x="964.0" y="1360.0" type="line"/>
      <point x="53.0" y="1360.0" type="line"/>
      <point x="53.0" y="1456.0" type="line"/>
      <point x="1128.0" y="1456.0" type="line"/>
      <point x="1128.0" y="1392.0" type="line"/>
      <point x="171.0" y="96.0" type="line"/>
      <point x="1160.0" y="96.0" type="line"/>
      <point x="1160.0" y="0.0" type="line"/>
    </contour>
  </outline>
</glyph>
<glyph name="c" format="2">
  <advance width="1129"/>
  <unicode hex="0063"/>
  <anchor x="621.0" y="0" name="bottom"/>
  <outline>
    <contour>
      <point x="56.0" y="442.0" type="qcurve" smooth="yes"/>
      <point x="56.0" y="474.0" type="line" smooth="yes"/>
      <point x="56.0" y="691.0"/>
      <point x="357.0" y="934.0"/>
      <point x="622.0" y="934.0" type="qcurve" smooth="yes"/>
      <point x="877.0" y="934.0"/>
      <point x="1128.0" y="755.0"/>
      <point x="1128.0" y="610.0" type="qcurve" smooth="yes"/>
      <point x="1128.0" y="595.0" type="line"/>
      <point x="1019.0" y="595.0" type="line"/>
      <point x="1019.0" y="610.0" type="line" smooth="yes"/>
      <point x="1019.0" y="713.5186721991702"/>
      <point x="836.1394658753709" y="841.0"/>
      <point x="622.0" y="841.0" type="qcurve" smooth="yes"/>
      <point x="395.07196029776674" y="841.0"/>
      <point x="165.0" y="654.0928381962865"/>
      <point x="165.0" y="474.0" type="qcurve" smooth="yes"/>
      <point x="165.0" y="442.0" type="line" smooth="yes"/>
      <point x="165.0" y="273.56464379947226"/>
      <point x="390.07196029776674" y="73.0"/>
      <point x="620.0" y="73.0" type="qcurve" smooth="yes"/>
      <point x="836.1394658753709" y="73.0"/>
      <point x="1023.0" y="211.2629482071713"/>
      <point x="1023.0" y="314.0" type="qcurve" smooth="yes"/>
      <point x="1023.0" y="329.0" type="line"/>
      <point x="1128.0" y="329.0" type="line"/>
      <point x="1128.0" y="314.0" type="line" smooth="yes"/>
      <point x="1128.0" y="178.0"/>
      <point x="877.0" y="-20.0"/>
      <point x="622.0" y="-20.0" type="qcurve" smooth="yes"/>
      <point x="361.0" y="-20.0"/>
      <point x="56.0" y="227.0"/>
    </contour>
  </outline>
</glyph>
<glyph name="e" format="2">
  <advance width="1187"/>
  <unicode hex="0065"/>
  <anchor x="611.0" y="914.0" name="top"/>
  <outline>
    <contour>
      <point x="56.0" y="442.0" type="qcurve" smooth="yes"/>
      <point x="56.0" y="474.0" type="line" smooth="yes"/>
      <point x="56.0" y="681.0"/>
      <point x="362.0" y="934.0"/>
      <point x="613.0" y="934.0" type="qcurve" smooth="yes"/>
      <point x="863.0" y="934.0"/>
      <point x="1133.0" y="696.341628959276"/>
      <point x="1133.0" y="487.0" type="qcurve" smooth="yes"/>
      <point x="1133.0" y="445.0" type="line"/>
      <point x="96.0" y="445.0" type="line"/>
      <point x="96.0" y="537.0" type="line"/>
      <point x="1029.0" y="537.0" type="line"/>
      <point x="1029.0" y="519.0" type="line" smooth="yes"/>
      <point x="1029.0" y="645.8877551020408"/>
      <point x="851.8371428571429" y="842.0"/>
      <point x="605.0" y="842.0" type="qcurve" smooth="yes"/>
      <point x="389.34447300771217" y="842.0"/>
      <point x="155.0" y="638.5291005291006"/>
      <point x="155.0" y="474.0" type="qcurve" smooth="yes"/>
      <point x="155.0" y="442.0" type="line" smooth="yes"/>
      <point x="155.0" y="277.4473684210526"/>
      <point x="399.6511627906975" y="72.0"/>
      <point x="654.0" y="72.0" type="qcurve" smooth="yes"/>
      <point x="790.3014631043256" y="72.0"/>
      <point x="988.0" y="144.0"/>
      <point x="1051.0" y="215.0" type="qcurve"/>
      <point x="1122.0" y="144.0" type="line"/>
      <point x="1067.0" y="82.0"/>
      <point x="824.0" y="-20.0"/>
      <point x="654.0" y="-20.0" type="qcurve" smooth="yes"/>
      <point x="365.0" y="-20.0"/>
      <point x="56.0" y="233.0"/>
    </contour>
  </outline>
</glyph>
<glyph name="k" format="2">
  <advance width="1109"/>
  <unicode hex="006B"/>
  <outline>
    <contour>
      <point x="118.0" y="0.0" type="line"/>
      <point x="118.0" y="1458.0" type="line"/>
      <point x="225.0" y="1458.0" type="line"/>
      <point x="225.0" y="482.0" type="line"/>
      <point x="868.0" y="914.0" type="line"/>
      <point x="1051.0" y="914.0" type="line"/>
      <point x="225.0" y="369.0" type="line"/>
      <point x="225.0" y="0.0" type="line"/>
    </contour>
    <contour>
      <point x="971.0" y="0.0" type="line"/>
      <point x="440.0" y="557.0" type="line"/>
      <point x="524.0" y="619.0" type="line"/>
      <point x="1122.0" y="0.0" type="line"/>
    </contour>
  </outline>
</glyph>
<glyph name="v" format="2">
  <advance width="1153"/>
  <unicode hex="0076"/>
  <outline>
    <contour>
      <point x="0.0" y="914.0" type="line"/>
      <point x="126.0" y="914.0" type="line"/>
      <point x="517.0" y="218.0" type="line" smooth="yes"/>
      <point x="538" y="180"/>
      <point x="571.0" y="121.0"/>
      <point x="580.0" y="99.0" type="qcurve"/>
      <point x="583.0" y="99.0" type="line"/>
      <point x="596.0" y="129.0"/>
      <point x="626" y="180"/>
      <point x="646.0" y="218.0" type="qcurve" smooth="yes"/>
      <point x="1023.0" y="914.0" type="line"/>
      <point x="1153.0" y="914.0" type="line"/>
      <point x="640.0" y="0.0" type="line"/>
      <point x="513.0" y="0.0" type="line"/>
    </contour>
  </outline>
</glyph>
<glyph name="w" format="2">
  <advance width="1829"/>
  <unicode hex="0077"/>
  <outline>
    <contour>
      <point x="10.0" y="914.0" type="line"/>
      <point x="141.0" y="914.0" type="line"/>
      <point x="421.0" y="232.0" type="line" smooth="yes"/>
      <point x="436.0" y="194.0"/>
      <point x="455.0" y="142.0"/>
      <point x="471.0" y="102.0" type="qcurve"/>
      <point x="477.0" y="102.0" type="line"/>
      <point x="496.0" y="142.0"/>
      <point x="522.0" y="194.0"/>
      <point x="539.0" y="232.0" type="qcurve" smooth="yes"/>
      <point x="849.0" y="914.0" type="line"/>
      <point x="995.0" y="914.0" type="line"/>
      <point x="1304.0" y="232.0" type="line" smooth="yes"/>
      <point x="1321.0" y="194.0"/>
      <point x="1350.0" y="142.0"/>
      <point x="1370.0" y="102.0" type="qcurve"/>
      <point x="1376.0" y="102.0" type="line"/>
      <point x="1396.0" y="142.0"/>
      <point x="1422.0" y="200.0"/>
      <point x="1435.0" y="232.0" type="qcurve" smooth="yes"/>
      <point x="1701.0" y="914.0" type="line"/>
      <point x="1819.0" y="914.0" type="line"/>
      <point x="1452.0" y="0.0" type="line"/>
      <point x="1284.0" y="0.0" type="line"/>
      <point x="969.0" y="710.0" type="line" smooth="yes"/>
      <point x="955.0" y="736.0"/>
      <point x="930.0" y="784.0"/>
      <point x="919.0" y="812.0" type="qcurve"/>
      <point x="914.0" y="812.0" type="line"/>
      <point x="902.0" y="784.0"/>
      <point x="877.0" y="737.0"/>
      <point x="863.0" y="710.0" type="qcurve" smooth="yes"/>
      <point x="549.0" y="0.0" type="line"/>
      <point x="380.0" y="0.0" type="line"/>
    </contour>
  </outline>
</glyph>
<glyph name="z" format="2">
  <advance width="990"/>
  <unicode hex="007A"/>
  <outline>
    <contour>
      <point x="10.0" y="0.0" type="line"/>
      <point x="10.0" y="85.0" type="line"/>
      <point x="769.0" y="820.0" type="line"/>
      <point x="22.0" y="820.0" type="line"/>
      <point x="22.0" y="914.0" type="line"/>
      <point x="951.0" y="914.0" type="line"/>
      <point x="951.0" y="829.0" type="line"/>
      <point x="191.0" y="94.0" type="line"/>
      <point x="980.0" y="94.0" type="line"/>
      <point x="980.0" y="0.0" type="line"/>
    </contour>
  </outline>
</glyph>
<glyph name="braceleft" format="2">
  <advance width="618"/>
  <unicode hex="007B"/>
  <outline>
    <contour>
      <point x="670.0" y="-312.0" type="line"/>
      <point x="400.0" y="-312.0"/>
      <point x="146.0" y="-71.0"/>
      <point x="218.0" y="157.0" type="qcurve" smooth="yes"/>
      <point x="271.0" y="329.0" type="line" smooth="yes"/>
      <point x="304.71575305038584" y="454.01573716344257"/>
      <point x="152.0" y="534.0"/>
      <point x="19.0" y="534.0" type="qcurve"/>
      <point x="19.0" y="614.0" type="line"/>
      <point x="152.0" y="614.0"/>
      <point x="304.71575305038584" y="693.9842628365574"/>
      <point x="271.0" y="819.0" type="qcurve" smooth="yes"/>
      <point x="218.0" y="991.0" type="line" smooth="yes"/>
      <point x="146.0" y="1219.0"/>
      <point x="400.0" y="1460.0"/>
      <point x="670.0" y="1460.0" type="qcurve"/>
      <point x="670.0" y="1380.0" type="line"/>
      <point x="432.0" y="1380.0"/>
      <point x="269.1831455393378" y="1185.067513737455"/>
      <point x="327.0" y="986.0" type="qcurve" smooth="yes"/>
      <point x="380.0" y="814.0" type="line" smooth="yes"/>
      <point x="407.0" y="732.0"/>
      <point x="333.0" y="592.0"/>
      <point x="237.0" y="574.0" type="qcurve"/>
      <point x="333.0" y="556.0"/>
      <point x="404.0" y="417.0"/>
      <point x="380.0" y="334.0" type="qcurve" smooth="yes"/>
      <point x="327.0" y="162.0" type="line" smooth="yes"/>
      <point x="269.1831455393377" y="-37.06751373745524"/>
      <point x="432.0" y="-232.0"/>
      <point x="670.0" y="-232.0" type="qcurve"/>
    </contour>
  </outline>
</glyph>
<glyph name="asciitilde" format="2">
  <advance width="1270"/>
  <unicode hex="007E"/>
  <outline>
    <contour>
      <point x="208.0" y="585.0" type="qcurve"/>
      <point x="208.0" y="698.0" type="line"/>
      <point x="255.0" y="749.0"/>
      <point x="357.0" y="805.0"/>
      <point x="422.0" y="807.0" type="qcurve" smooth="yes"/>
      <point x="462.0" y="808.0"/>
      <point x="572.0" y="767.0"/>
      <point x="630.0" y="741.0" type="qcurve" smooth="yes"/>
      <point x="692.0" y="713.0"/>
      <point x="811.0" y="665.0"/>
      <point x="854.0" y="665.0" type="qcurve" smooth="yes"/>
      <point x="919.0" y="665.0"/>
      <point x="1012.0" y="733.0"/>
      <point x="1061.0" y="793.0" type="qcurve"/>
      <point x="1061.0" y="679.0" type="line"/>
      <point x="1024.0" y="628.0"/>
      <point x="920.0" y="570.0"/>
      <point x="855.0" y="570.0" type="qcurve" smooth="yes"/>
      <point x="812.0" y="570.0"/>
      <point x="699.0" y="610.0"/>
      <point x="642.0" y="635.0" type="qcurve" smooth="yes"/>
      <point x="579.0" y="663.0"/>
      <point x="461.0" y="712.0"/>
      <point x="422.0" y="712.0" type="qcurve" smooth="yes"/>
      <point x="357.0" y="712.0"/>
      <point x="259.0" y="645.0"/>
    </contour>
  </outline>
</glyph>
<glyph name="macron" format="2">
  <advance width="1024"/>
  <unicode hex="00AF"/>
  <anchor x="473.0" y="1577.0" name="mkmktop_acc"/>
  <outline>
    <contour>
      <point x="766.0" y="1136.0" type="line"/>
      <point x="766.0" y="1014.0" type="line"/>
      <point x="258.0" y="1014.0" type="line"/>
      <point x="258.0" y="1136.0" type="line"/>
    </contour>
  </outline>
</glyph>
<glyph name="fraction" format="2">
  <advance width="342"/>
  <unicode hex="2044"/>
  <guideline x="0" y="901.0" angle="0" identifier="tcCoNUQTdD"/>
  <guideline x="0" y="555.0" angle="0" identifier="0lx51aIE0d"/>
  <outline>
    <contour>
      <point x="773.0" y="1450.0" type="line"/>
      <point x="-324.0" y="-53.0" type="line"/>
      <point x="-409.0" y="8.0" type="line"/>
      <point x="684.0" y="1499.0" type="line"/>
    </contour>
  </outline>
</glyph>
